<mxfile host="app.diagrams.net" agent="Mozilla/5.0 (Macintosh; Intel Mac OS X 10_15_7) AppleWebKit/537.36 (KHTML, like Gecko) Chrome/138.0.0.0 Safari/537.36" version="27.2.0">
  <diagram name="Page-1" id="DS_TWJ373Ps78vdfHSgM">
    <mxGraphModel dx="1336" dy="2013" grid="1" gridSize="10" guides="1" tooltips="1" connect="1" arrows="1" fold="1" page="1" pageScale="1" pageWidth="850" pageHeight="1100" math="0" shadow="0">
      <root>
        <mxCell id="0" />
        <mxCell id="1" parent="0" />
        <mxCell id="1CRBDQJJfLzbWSRdy7kv-4" value="" style="edgeStyle=orthogonalEdgeStyle;rounded=0;orthogonalLoop=1;jettySize=auto;html=1;" parent="1" target="1CRBDQJJfLzbWSRdy7kv-3" edge="1">
          <mxGeometry relative="1" as="geometry">
            <mxPoint x="190" y="182.5" as="sourcePoint" />
          </mxGeometry>
        </mxCell>
        <mxCell id="1CRBDQJJfLzbWSRdy7kv-5" value="&lt;font style=&quot;font-size: 16px;&quot;&gt;GET&amp;nbsp;&lt;/font&gt;&lt;div&gt;&lt;font style=&quot;font-size: 16px;&quot;&gt;/question?prompt=helloWorld&lt;/font&gt;&lt;/div&gt;" style="edgeLabel;html=1;align=center;verticalAlign=middle;resizable=0;points=[];" parent="1CRBDQJJfLzbWSRdy7kv-4" vertex="1" connectable="0">
          <mxGeometry x="-0.104" y="-1" relative="1" as="geometry">
            <mxPoint x="17" y="-1" as="offset" />
          </mxGeometry>
        </mxCell>
        <mxCell id="1CRBDQJJfLzbWSRdy7kv-3" value="&lt;div style=&quot;&quot;&gt;&lt;span style=&quot;font-size: 24px; background-color: transparent; color: light-dark(rgb(0, 0, 0), rgb(255, 255, 255));&quot;&gt;Backend Server&lt;/span&gt;&lt;/div&gt;" style="whiteSpace=wrap;html=1;verticalAlign=middle;align=center;fillColor=#d5e8d4;strokeColor=#82b366;" parent="1" vertex="1">
          <mxGeometry x="530" y="120" width="220" height="125" as="geometry" />
        </mxCell>
        <mxCell id="1CRBDQJJfLzbWSRdy7kv-6" value="&lt;h1 style=&quot;margin-top: 0px;&quot;&gt;HTTP Streams&lt;/h1&gt;&lt;div&gt;- One directional communication&lt;/div&gt;&lt;div&gt;- Client can request ONCE&lt;/div&gt;&lt;div&gt;- Server responds in INCREMENTAL CHUNKS&lt;/div&gt;&lt;div&gt;&lt;br&gt;&lt;/div&gt;&lt;div&gt;- User starts seeing answer immediately&lt;/div&gt;" style="text;html=1;whiteSpace=wrap;overflow=hidden;rounded=0;" parent="1" vertex="1">
          <mxGeometry x="80" y="-40" width="270" height="130" as="geometry" />
        </mxCell>
        <mxCell id="1CRBDQJJfLzbWSRdy7kv-8" value="&lt;font style=&quot;font-size: 18px;&quot;&gt;User Client&lt;/font&gt;" style="ellipse;whiteSpace=wrap;html=1;aspect=fixed;fillColor=#fff2cc;strokeColor=#d6b656;" parent="1" vertex="1">
          <mxGeometry x="70" y="122.5" width="120" height="120" as="geometry" />
        </mxCell>
        <mxCell id="1CRBDQJJfLzbWSRdy7kv-14" style="edgeStyle=orthogonalEdgeStyle;rounded=0;orthogonalLoop=1;jettySize=auto;html=1;entryX=1;entryY=0.5;entryDx=0;entryDy=0;" parent="1" source="1CRBDQJJfLzbWSRdy7kv-12" target="1CRBDQJJfLzbWSRdy7kv-13" edge="1">
          <mxGeometry relative="1" as="geometry" />
        </mxCell>
        <mxCell id="1CRBDQJJfLzbWSRdy7kv-15" value="&lt;div&gt;&lt;font style=&quot;font-size: 15px;&quot;&gt;HTTP 200&lt;/font&gt;&lt;/div&gt;&lt;div&gt;&lt;font style=&quot;font-size: 15px;&quot;&gt;&lt;br&gt;&lt;/font&gt;&lt;/div&gt;&lt;font style=&quot;font-size: 15px;&quot;&gt;{&amp;nbsp;&lt;/font&gt;&lt;span style=&quot;font-size: 15px; background-color: light-dark(#ffffff, var(--ge-dark-color, #121212)); color: light-dark(rgb(0, 0, 0), rgb(255, 255, 255));&quot;&gt;&quot;data&quot;: &quot;Hi &quot;&amp;nbsp;&lt;/span&gt;&lt;span style=&quot;font-size: 15px; background-color: light-dark(#ffffff, var(--ge-dark-color, #121212)); color: light-dark(rgb(0, 0, 0), rgb(255, 255, 255));&quot;&gt;}&lt;/span&gt;" style="edgeLabel;html=1;align=left;verticalAlign=middle;resizable=0;points=[];" parent="1CRBDQJJfLzbWSRdy7kv-14" vertex="1" connectable="0">
          <mxGeometry x="-0.0636" y="4" relative="1" as="geometry">
            <mxPoint x="-91" y="-4" as="offset" />
          </mxGeometry>
        </mxCell>
        <mxCell id="1CRBDQJJfLzbWSRdy7kv-12" value="&lt;div style=&quot;&quot;&gt;&lt;span style=&quot;font-size: 24px; background-color: transparent; color: light-dark(rgb(0, 0, 0), rgb(255, 255, 255));&quot;&gt;Backend Server&lt;/span&gt;&lt;/div&gt;" style="whiteSpace=wrap;html=1;verticalAlign=middle;align=center;fillColor=#d5e8d4;strokeColor=#82b366;" parent="1" vertex="1">
          <mxGeometry x="530" y="337.5" width="220" height="125" as="geometry" />
        </mxCell>
        <mxCell id="1CRBDQJJfLzbWSRdy7kv-13" value="&lt;font style=&quot;font-size: 18px;&quot;&gt;User Client&lt;/font&gt;" style="ellipse;whiteSpace=wrap;html=1;aspect=fixed;fillColor=#fff2cc;strokeColor=#d6b656;" parent="1" vertex="1">
          <mxGeometry x="70" y="340" width="120" height="120" as="geometry" />
        </mxCell>
        <mxCell id="1CRBDQJJfLzbWSRdy7kv-16" value="" style="endArrow=none;html=1;rounded=0;" parent="1" edge="1">
          <mxGeometry width="50" height="50" relative="1" as="geometry">
            <mxPoint x="70" y="277.5" as="sourcePoint" />
            <mxPoint x="1190" y="280" as="targetPoint" />
            <Array as="points">
              <mxPoint x="80" y="277.5" />
            </Array>
          </mxGeometry>
        </mxCell>
        <mxCell id="1CRBDQJJfLzbWSRdy7kv-17" value="&lt;font style=&quot;font-size: 17px;&quot;&gt;&lt;i&gt;Starts Responding immediately (&amp;lt; 1 second)&lt;/i&gt;&lt;/font&gt;" style="edgeLabel;html=1;align=center;verticalAlign=middle;resizable=0;points=[];" parent="1CRBDQJJfLzbWSRdy7kv-16" vertex="1" connectable="0">
          <mxGeometry x="-0.4778" y="-1" relative="1" as="geometry">
            <mxPoint x="267" as="offset" />
          </mxGeometry>
        </mxCell>
        <mxCell id="1CRBDQJJfLzbWSRdy7kv-22" style="edgeStyle=orthogonalEdgeStyle;rounded=0;orthogonalLoop=1;jettySize=auto;html=1;entryX=1;entryY=0.5;entryDx=0;entryDy=0;" parent="1" source="1CRBDQJJfLzbWSRdy7kv-18" target="1CRBDQJJfLzbWSRdy7kv-3" edge="1">
          <mxGeometry relative="1" as="geometry" />
        </mxCell>
        <mxCell id="1CRBDQJJfLzbWSRdy7kv-23" value="&lt;font style=&quot;font-size: 15px;&quot;&gt;LLM Response&lt;/font&gt;" style="edgeLabel;html=1;align=center;verticalAlign=middle;resizable=0;points=[];" parent="1CRBDQJJfLzbWSRdy7kv-22" vertex="1" connectable="0">
          <mxGeometry x="-0.032" y="3" relative="1" as="geometry">
            <mxPoint x="-1" as="offset" />
          </mxGeometry>
        </mxCell>
        <mxCell id="1CRBDQJJfLzbWSRdy7kv-18" value="&lt;font style=&quot;font-size: 22px;&quot;&gt;OpenAI&lt;/font&gt;" style="ellipse;whiteSpace=wrap;html=1;fillColor=#f8cecc;strokeColor=#b85450;direction=south;" parent="1" vertex="1">
          <mxGeometry x="1000" y="116.25" width="160" height="132.5" as="geometry" />
        </mxCell>
        <mxCell id="1CRBDQJJfLzbWSRdy7kv-27" style="edgeStyle=orthogonalEdgeStyle;rounded=0;orthogonalLoop=1;jettySize=auto;html=1;exitX=0.5;exitY=1;exitDx=0;exitDy=0;entryX=1;entryY=0.5;entryDx=0;entryDy=0;" parent="1" source="1CRBDQJJfLzbWSRdy7kv-21" target="1CRBDQJJfLzbWSRdy7kv-12" edge="1">
          <mxGeometry relative="1" as="geometry" />
        </mxCell>
        <mxCell id="1CRBDQJJfLzbWSRdy7kv-28" value="&lt;font style=&quot;font-size: 15px;&quot;&gt;LLM Response&lt;/font&gt;" style="edgeLabel;html=1;align=center;verticalAlign=middle;resizable=0;points=[];" parent="1CRBDQJJfLzbWSRdy7kv-27" vertex="1" connectable="0">
          <mxGeometry x="-0.048" y="2" relative="1" as="geometry">
            <mxPoint as="offset" />
          </mxGeometry>
        </mxCell>
        <mxCell id="1CRBDQJJfLzbWSRdy7kv-21" value="&lt;font style=&quot;font-size: 22px;&quot;&gt;OpenAI&lt;/font&gt;" style="ellipse;whiteSpace=wrap;html=1;fillColor=#f8cecc;strokeColor=#b85450;direction=south;" parent="1" vertex="1">
          <mxGeometry x="1000" y="333.75" width="160" height="132.5" as="geometry" />
        </mxCell>
        <mxCell id="I-9N-YSfWl_Ru_FgywRT-1" value="" style="endArrow=none;html=1;rounded=0;" parent="1" edge="1">
          <mxGeometry width="50" height="50" relative="1" as="geometry">
            <mxPoint x="50" y="510" as="sourcePoint" />
            <mxPoint x="1190" y="512" as="targetPoint" />
            <Array as="points">
              <mxPoint x="60" y="510" />
            </Array>
          </mxGeometry>
        </mxCell>
        <mxCell id="I-9N-YSfWl_Ru_FgywRT-2" value="&lt;span style=&quot;font-size: 17px;&quot;&gt;&lt;i&gt;Server continues sending data in chunks&lt;/i&gt;&lt;/span&gt;" style="edgeLabel;html=1;align=center;verticalAlign=middle;resizable=0;points=[];" parent="I-9N-YSfWl_Ru_FgywRT-1" vertex="1" connectable="0">
          <mxGeometry x="-0.4778" y="-1" relative="1" as="geometry">
            <mxPoint x="267" as="offset" />
          </mxGeometry>
        </mxCell>
        <mxCell id="mMPkzrsT_v4mIV54kTmL-1" style="edgeStyle=orthogonalEdgeStyle;rounded=0;orthogonalLoop=1;jettySize=auto;html=1;entryX=1;entryY=0.5;entryDx=0;entryDy=0;" edge="1" parent="1" source="mMPkzrsT_v4mIV54kTmL-3" target="mMPkzrsT_v4mIV54kTmL-4">
          <mxGeometry relative="1" as="geometry" />
        </mxCell>
        <mxCell id="mMPkzrsT_v4mIV54kTmL-2" value="&lt;div&gt;&lt;font style=&quot;font-size: 15px;&quot;&gt;HTTP 200&lt;/font&gt;&lt;/div&gt;&lt;div&gt;&lt;font style=&quot;font-size: 15px;&quot;&gt;&lt;br&gt;&lt;/font&gt;&lt;/div&gt;&lt;font style=&quot;font-size: 15px;&quot;&gt;{&amp;nbsp;&lt;/font&gt;&lt;span style=&quot;font-size: 15px; background-color: light-dark(#ffffff, var(--ge-dark-color, #121212)); color: light-dark(rgb(0, 0, 0), rgb(255, 255, 255));&quot;&gt;&quot;data&quot;: &quot; there&quot;&amp;nbsp;&lt;/span&gt;&lt;span style=&quot;font-size: 15px; background-color: light-dark(#ffffff, var(--ge-dark-color, #121212)); color: light-dark(rgb(0, 0, 0), rgb(255, 255, 255));&quot;&gt;}&lt;/span&gt;" style="edgeLabel;html=1;align=left;verticalAlign=middle;resizable=0;points=[];" vertex="1" connectable="0" parent="mMPkzrsT_v4mIV54kTmL-1">
          <mxGeometry x="-0.0636" y="4" relative="1" as="geometry">
            <mxPoint x="-91" y="-4" as="offset" />
          </mxGeometry>
        </mxCell>
        <mxCell id="mMPkzrsT_v4mIV54kTmL-3" value="&lt;div style=&quot;&quot;&gt;&lt;span style=&quot;font-size: 24px; background-color: transparent; color: light-dark(rgb(0, 0, 0), rgb(255, 255, 255));&quot;&gt;Backend Server&lt;/span&gt;&lt;/div&gt;" style="whiteSpace=wrap;html=1;verticalAlign=middle;align=center;fillColor=#d5e8d4;strokeColor=#82b366;" vertex="1" parent="1">
          <mxGeometry x="530" y="543.75" width="220" height="125" as="geometry" />
        </mxCell>
        <mxCell id="mMPkzrsT_v4mIV54kTmL-4" value="&lt;font style=&quot;font-size: 18px;&quot;&gt;User Client&lt;/font&gt;" style="ellipse;whiteSpace=wrap;html=1;aspect=fixed;fillColor=#fff2cc;strokeColor=#d6b656;" vertex="1" parent="1">
          <mxGeometry x="70" y="546.25" width="120" height="120" as="geometry" />
        </mxCell>
        <mxCell id="mMPkzrsT_v4mIV54kTmL-5" style="edgeStyle=orthogonalEdgeStyle;rounded=0;orthogonalLoop=1;jettySize=auto;html=1;exitX=0.5;exitY=1;exitDx=0;exitDy=0;entryX=1;entryY=0.5;entryDx=0;entryDy=0;" edge="1" parent="1" source="mMPkzrsT_v4mIV54kTmL-7" target="mMPkzrsT_v4mIV54kTmL-3">
          <mxGeometry relative="1" as="geometry" />
        </mxCell>
        <mxCell id="mMPkzrsT_v4mIV54kTmL-6" value="&lt;font style=&quot;font-size: 15px;&quot;&gt;LLM Response&lt;/font&gt;" style="edgeLabel;html=1;align=center;verticalAlign=middle;resizable=0;points=[];" vertex="1" connectable="0" parent="mMPkzrsT_v4mIV54kTmL-5">
          <mxGeometry x="-0.048" y="2" relative="1" as="geometry">
            <mxPoint as="offset" />
          </mxGeometry>
        </mxCell>
        <mxCell id="mMPkzrsT_v4mIV54kTmL-7" value="&lt;font style=&quot;font-size: 22px;&quot;&gt;OpenAI&lt;/font&gt;" style="ellipse;whiteSpace=wrap;html=1;fillColor=#f8cecc;strokeColor=#b85450;direction=south;" vertex="1" parent="1">
          <mxGeometry x="1000" y="540" width="160" height="132.5" as="geometry" />
        </mxCell>
        <mxCell id="mMPkzrsT_v4mIV54kTmL-8" value="" style="endArrow=none;html=1;rounded=0;" edge="1" parent="1">
          <mxGeometry width="50" height="50" relative="1" as="geometry">
            <mxPoint x="40" y="710" as="sourcePoint" />
            <mxPoint x="1180" y="712" as="targetPoint" />
            <Array as="points">
              <mxPoint x="50" y="710" />
            </Array>
          </mxGeometry>
        </mxCell>
        <mxCell id="mMPkzrsT_v4mIV54kTmL-9" value="&lt;span style=&quot;font-size: 17px;&quot;&gt;&lt;i&gt;Server continues sending data in chunks&lt;/i&gt;&lt;/span&gt;" style="edgeLabel;html=1;align=center;verticalAlign=middle;resizable=0;points=[];" vertex="1" connectable="0" parent="mMPkzrsT_v4mIV54kTmL-8">
          <mxGeometry x="-0.4778" y="-1" relative="1" as="geometry">
            <mxPoint x="267" as="offset" />
          </mxGeometry>
        </mxCell>
        <mxCell id="mMPkzrsT_v4mIV54kTmL-10" style="edgeStyle=orthogonalEdgeStyle;rounded=0;orthogonalLoop=1;jettySize=auto;html=1;entryX=1;entryY=0.5;entryDx=0;entryDy=0;" edge="1" parent="1" source="mMPkzrsT_v4mIV54kTmL-12" target="mMPkzrsT_v4mIV54kTmL-13">
          <mxGeometry relative="1" as="geometry" />
        </mxCell>
        <mxCell id="mMPkzrsT_v4mIV54kTmL-11" value="&lt;div&gt;&lt;font style=&quot;font-size: 15px;&quot;&gt;HTTP 200&lt;/font&gt;&lt;/div&gt;&lt;div&gt;&lt;font style=&quot;font-size: 15px;&quot;&gt;&lt;br&gt;&lt;/font&gt;&lt;/div&gt;&lt;font style=&quot;font-size: 15px;&quot;&gt;{&amp;nbsp;&lt;/font&gt;&lt;span style=&quot;font-size: 15px; background-color: light-dark(#ffffff, var(--ge-dark-color, #121212)); color: light-dark(rgb(0, 0, 0), rgb(255, 255, 255));&quot;&gt;&quot;data&quot;: &quot; . How are&quot;&amp;nbsp;&lt;/span&gt;&lt;span style=&quot;font-size: 15px; background-color: light-dark(#ffffff, var(--ge-dark-color, #121212)); color: light-dark(rgb(0, 0, 0), rgb(255, 255, 255));&quot;&gt;}&lt;/span&gt;" style="edgeLabel;html=1;align=left;verticalAlign=middle;resizable=0;points=[];" vertex="1" connectable="0" parent="mMPkzrsT_v4mIV54kTmL-10">
          <mxGeometry x="-0.0636" y="4" relative="1" as="geometry">
            <mxPoint x="-91" y="-4" as="offset" />
          </mxGeometry>
        </mxCell>
        <mxCell id="mMPkzrsT_v4mIV54kTmL-12" value="&lt;div style=&quot;&quot;&gt;&lt;span style=&quot;font-size: 24px; background-color: transparent; color: light-dark(rgb(0, 0, 0), rgb(255, 255, 255));&quot;&gt;Backend Server&lt;/span&gt;&lt;/div&gt;" style="whiteSpace=wrap;html=1;verticalAlign=middle;align=center;fillColor=#d5e8d4;strokeColor=#82b366;" vertex="1" parent="1">
          <mxGeometry x="520" y="743.75" width="220" height="125" as="geometry" />
        </mxCell>
        <mxCell id="mMPkzrsT_v4mIV54kTmL-13" value="&lt;font style=&quot;font-size: 18px;&quot;&gt;User Client&lt;/font&gt;" style="ellipse;whiteSpace=wrap;html=1;aspect=fixed;fillColor=#fff2cc;strokeColor=#d6b656;" vertex="1" parent="1">
          <mxGeometry x="60" y="746.25" width="120" height="120" as="geometry" />
        </mxCell>
        <mxCell id="mMPkzrsT_v4mIV54kTmL-14" style="edgeStyle=orthogonalEdgeStyle;rounded=0;orthogonalLoop=1;jettySize=auto;html=1;exitX=0.5;exitY=1;exitDx=0;exitDy=0;entryX=1;entryY=0.5;entryDx=0;entryDy=0;" edge="1" parent="1" source="mMPkzrsT_v4mIV54kTmL-16" target="mMPkzrsT_v4mIV54kTmL-12">
          <mxGeometry relative="1" as="geometry" />
        </mxCell>
        <mxCell id="mMPkzrsT_v4mIV54kTmL-15" value="&lt;font style=&quot;font-size: 15px;&quot;&gt;LLM Response&lt;/font&gt;" style="edgeLabel;html=1;align=center;verticalAlign=middle;resizable=0;points=[];" vertex="1" connectable="0" parent="mMPkzrsT_v4mIV54kTmL-14">
          <mxGeometry x="-0.048" y="2" relative="1" as="geometry">
            <mxPoint as="offset" />
          </mxGeometry>
        </mxCell>
        <mxCell id="mMPkzrsT_v4mIV54kTmL-16" value="&lt;font style=&quot;font-size: 22px;&quot;&gt;OpenAI&lt;/font&gt;" style="ellipse;whiteSpace=wrap;html=1;fillColor=#f8cecc;strokeColor=#b85450;direction=south;" vertex="1" parent="1">
          <mxGeometry x="990" y="740" width="160" height="132.5" as="geometry" />
        </mxCell>
        <mxCell id="mMPkzrsT_v4mIV54kTmL-26" value="" style="endArrow=none;html=1;rounded=0;" edge="1" parent="1">
          <mxGeometry width="50" height="50" relative="1" as="geometry">
            <mxPoint x="50" y="900" as="sourcePoint" />
            <mxPoint x="1190" y="902" as="targetPoint" />
            <Array as="points">
              <mxPoint x="60" y="900" />
            </Array>
          </mxGeometry>
        </mxCell>
        <mxCell id="mMPkzrsT_v4mIV54kTmL-27" value="&lt;span style=&quot;font-size: 17px;&quot;&gt;&lt;i&gt;Server continues sending data in chunks&lt;/i&gt;&lt;/span&gt;" style="edgeLabel;html=1;align=center;verticalAlign=middle;resizable=0;points=[];" vertex="1" connectable="0" parent="mMPkzrsT_v4mIV54kTmL-26">
          <mxGeometry x="-0.4778" y="-1" relative="1" as="geometry">
            <mxPoint x="267" as="offset" />
          </mxGeometry>
        </mxCell>
        <mxCell id="mMPkzrsT_v4mIV54kTmL-28" style="edgeStyle=orthogonalEdgeStyle;rounded=0;orthogonalLoop=1;jettySize=auto;html=1;entryX=1;entryY=0.5;entryDx=0;entryDy=0;" edge="1" parent="1" source="mMPkzrsT_v4mIV54kTmL-30" target="mMPkzrsT_v4mIV54kTmL-31">
          <mxGeometry relative="1" as="geometry" />
        </mxCell>
        <mxCell id="mMPkzrsT_v4mIV54kTmL-29" value="&lt;div&gt;&lt;font style=&quot;font-size: 15px;&quot;&gt;HTTP 200&lt;/font&gt;&lt;/div&gt;&lt;div&gt;&lt;font style=&quot;font-size: 15px;&quot;&gt;&lt;br&gt;&lt;/font&gt;&lt;/div&gt;&lt;font style=&quot;font-size: 15px;&quot;&gt;{&amp;nbsp;&lt;/font&gt;&lt;span style=&quot;font-size: 15px; background-color: light-dark(#ffffff, var(--ge-dark-color, #121212)); color: light-dark(rgb(0, 0, 0), rgb(255, 255, 255));&quot;&gt;&quot;data&quot;: &quot; you?&quot;&amp;nbsp;&lt;/span&gt;&lt;span style=&quot;font-size: 15px; background-color: light-dark(#ffffff, var(--ge-dark-color, #121212)); color: light-dark(rgb(0, 0, 0), rgb(255, 255, 255));&quot;&gt;}&lt;/span&gt;" style="edgeLabel;html=1;align=left;verticalAlign=middle;resizable=0;points=[];" vertex="1" connectable="0" parent="mMPkzrsT_v4mIV54kTmL-28">
          <mxGeometry x="-0.0636" y="4" relative="1" as="geometry">
            <mxPoint x="-91" y="-4" as="offset" />
          </mxGeometry>
        </mxCell>
        <mxCell id="mMPkzrsT_v4mIV54kTmL-30" value="&lt;div style=&quot;&quot;&gt;&lt;span style=&quot;font-size: 24px; background-color: transparent; color: light-dark(rgb(0, 0, 0), rgb(255, 255, 255));&quot;&gt;Backend Server&lt;/span&gt;&lt;/div&gt;" style="whiteSpace=wrap;html=1;verticalAlign=middle;align=center;fillColor=#d5e8d4;strokeColor=#82b366;" vertex="1" parent="1">
          <mxGeometry x="530" y="933.75" width="220" height="125" as="geometry" />
        </mxCell>
        <mxCell id="mMPkzrsT_v4mIV54kTmL-31" value="&lt;font style=&quot;font-size: 18px;&quot;&gt;User Client&lt;/font&gt;" style="ellipse;whiteSpace=wrap;html=1;aspect=fixed;fillColor=#fff2cc;strokeColor=#d6b656;" vertex="1" parent="1">
          <mxGeometry x="70" y="936.25" width="120" height="120" as="geometry" />
        </mxCell>
        <mxCell id="mMPkzrsT_v4mIV54kTmL-32" style="edgeStyle=orthogonalEdgeStyle;rounded=0;orthogonalLoop=1;jettySize=auto;html=1;exitX=0.5;exitY=1;exitDx=0;exitDy=0;entryX=1;entryY=0.5;entryDx=0;entryDy=0;" edge="1" parent="1" source="mMPkzrsT_v4mIV54kTmL-34" target="mMPkzrsT_v4mIV54kTmL-30">
          <mxGeometry relative="1" as="geometry" />
        </mxCell>
        <mxCell id="mMPkzrsT_v4mIV54kTmL-33" value="&lt;font style=&quot;font-size: 15px;&quot;&gt;LLM Response&lt;/font&gt;" style="edgeLabel;html=1;align=center;verticalAlign=middle;resizable=0;points=[];" vertex="1" connectable="0" parent="mMPkzrsT_v4mIV54kTmL-32">
          <mxGeometry x="-0.048" y="2" relative="1" as="geometry">
            <mxPoint as="offset" />
          </mxGeometry>
        </mxCell>
        <mxCell id="mMPkzrsT_v4mIV54kTmL-34" value="&lt;font style=&quot;font-size: 22px;&quot;&gt;OpenAI&lt;/font&gt;" style="ellipse;whiteSpace=wrap;html=1;fillColor=#f8cecc;strokeColor=#b85450;direction=south;" vertex="1" parent="1">
          <mxGeometry x="1000" y="930" width="160" height="132.5" as="geometry" />
        </mxCell>
      </root>
    </mxGraphModel>
  </diagram>
</mxfile>
